{
	"patcher" : 	{
		"fileversion" : 1,
		"rect" : [ 33.0, 295.0, 412.0, 445.0 ],
		"bglocked" : 0,
		"defrect" : [ 33.0, 295.0, 412.0, 445.0 ],
		"openrect" : [ 0.0, 0.0, 0.0, 0.0 ],
		"openinpresentation" : 0,
		"default_fontsize" : 10.0,
		"default_fontface" : 0,
		"default_fontname" : "Monaco",
		"gridonopen" : 0,
		"gridsize" : [ 8.0, 8.0 ],
		"gridsnaponopen" : 0,
		"toolbarvisible" : 1,
		"boxanimatetime" : 200,
		"imprint" : 0,
		"boxes" : [ 			{
				"box" : 				{
					"maxclass" : "newobj",
					"text" : "loadmess 0",
					"patching_rect" : [ 152.0, 272.0, 71.0, 20.0 ],
					"outlettype" : [ "" ],
					"id" : "obj-11",
					"fontname" : "Monaco",
					"fontsize" : 10.0,
					"numinlets" : 1,
					"numoutlets" : 1
				}

			}
, 			{
				"box" : 				{
					"maxclass" : "umenu",
					"types" : [  ],
					"patching_rect" : [ 152.0, 304.0, 100.0, 20.0 ],
					"outlettype" : [ "int", "", "" ],
					"id" : "obj-10",
					"fontname" : "Monaco",
					"fontsize" : 10.0,
					"numinlets" : 1,
					"items" : [ "points", ",", "lines", ",", "quads", ",", "line_strip", ",", "line_loop" ],
					"numoutlets" : 3
				}

			}
, 			{
				"box" : 				{
					"maxclass" : "message",
					"text" : "draw_mode $1",
					"patching_rect" : [ 120.0, 336.0, 83.0, 18.0 ],
					"outlettype" : [ "" ],
					"id" : "obj-9",
					"fontname" : "Monaco",
					"fontsize" : 10.0,
					"numinlets" : 2,
					"numoutlets" : 1
				}

			}
, 			{
				"box" : 				{
					"maxclass" : "jit.fpsgui",
					"patching_rect" : [ 24.0, 296.0, 80.0, 37.0 ],
					"outlettype" : [ "", "" ],
					"id" : "obj-7",
					"fontname" : "Monaco",
					"fontsize" : 10.0,
					"numinlets" : 1,
					"numoutlets" : 2
				}

			}
, 			{
				"box" : 				{
					"maxclass" : "newobj",
					"text" : "p polar2carthesian",
					"patching_rect" : [ 8.0, 264.0, 119.0, 20.0 ],
					"outlettype" : [ "jit_matrix" ],
					"id" : "obj-6",
					"fontname" : "Monaco",
					"fontsize" : 10.0,
					"numinlets" : 2,
					"numoutlets" : 1,
					"patcher" : 					{
						"fileversion" : 1,
						"rect" : [ 239.0, 44.0, 688.0, 395.0 ],
						"bglocked" : 0,
						"defrect" : [ 239.0, 44.0, 688.0, 395.0 ],
						"openrect" : [ 0.0, 0.0, 0.0, 0.0 ],
						"openinpresentation" : 0,
						"default_fontsize" : 10.0,
						"default_fontface" : 0,
						"default_fontname" : "Monaco",
						"gridonopen" : 0,
						"gridsize" : [ 8.0, 8.0 ],
						"gridsnaponopen" : 0,
						"toolbarvisible" : 1,
						"boxanimatetime" : 200,
						"imprint" : 0,
						"visible" : 1,
						"boxes" : [ 							{
								"box" : 								{
									"maxclass" : "newobj",
									"text" : "loadmess 541",
									"patching_rect" : [ 56.0, 88.0, 83.0, 20.0 ],
									"outlettype" : [ "" ],
									"id" : "obj-7",
									"fontname" : "Monaco",
									"fontsize" : 10.0,
									"numinlets" : 1,
									"numoutlets" : 1
								}

							}
, 							{
								"box" : 								{
									"maxclass" : "newobj",
									"text" : "change",
									"patching_rect" : [ 32.0, 120.0, 47.0, 20.0 ],
									"outlettype" : [ "", "int", "int" ],
									"id" : "obj-48",
									"fontname" : "Monaco",
									"fontsize" : 10.0,
									"numinlets" : 1,
									"numoutlets" : 3
								}

							}
, 							{
								"box" : 								{
									"maxclass" : "newobj",
									"text" : "route dim",
									"patching_rect" : [ 32.0, 64.0, 65.0, 20.0 ],
									"outlettype" : [ "", "" ],
									"id" : "obj-47",
									"fontname" : "Monaco",
									"fontsize" : 10.0,
									"numinlets" : 1,
									"numoutlets" : 2
								}

							}
, 							{
								"box" : 								{
									"maxclass" : "newobj",
									"text" : "jit.matrixinfo",
									"patching_rect" : [ 32.0, 40.0, 95.0, 20.0 ],
									"outlettype" : [ "" ],
									"id" : "obj-46",
									"fontname" : "Monaco",
									"fontsize" : 10.0,
									"numinlets" : 1,
									"numoutlets" : 1
								}

							}
, 							{
								"box" : 								{
									"maxclass" : "newobj",
									"text" : "jit.pack 3",
									"patching_rect" : [ 120.0, 320.0, 71.0, 20.0 ],
									"outlettype" : [ "jit_matrix", "" ],
									"id" : "obj-18",
									"fontname" : "Monaco",
									"fontsize" : 10.0,
									"numinlets" : 3,
									"numoutlets" : 2
								}

							}
, 							{
								"box" : 								{
									"maxclass" : "newobj",
									"text" : "jit.op @op *",
									"patching_rect" : [ 304.0, 272.0, 83.0, 20.0 ],
									"outlettype" : [ "jit_matrix", "" ],
									"id" : "obj-17",
									"fontname" : "Monaco",
									"fontsize" : 10.0,
									"numinlets" : 2,
									"numoutlets" : 2
								}

							}
, 							{
								"box" : 								{
									"maxclass" : "newobj",
									"text" : "jit.op @op *",
									"patching_rect" : [ 8.0, 280.0, 83.0, 20.0 ],
									"outlettype" : [ "jit_matrix", "" ],
									"id" : "obj-16",
									"fontname" : "Monaco",
									"fontsize" : 10.0,
									"numinlets" : 2,
									"numoutlets" : 2
								}

							}
, 							{
								"box" : 								{
									"maxclass" : "message",
									"text" : "dim $1",
									"patching_rect" : [ 72.0, 176.0, 47.0, 18.0 ],
									"outlettype" : [ "" ],
									"id" : "obj-14",
									"fontname" : "Monaco",
									"fontsize" : 10.0,
									"numinlets" : 2,
									"numoutlets" : 1
								}

							}
, 							{
								"box" : 								{
									"maxclass" : "newobj",
									"text" : "t b b i",
									"patching_rect" : [ 32.0, 144.0, 53.0, 20.0 ],
									"outlettype" : [ "bang", "bang", "int" ],
									"id" : "obj-13",
									"fontname" : "Monaco",
									"fontsize" : 10.0,
									"numinlets" : 1,
									"numoutlets" : 3
								}

							}
, 							{
								"box" : 								{
									"maxclass" : "message",
									"text" : "exprfill cos(DEGTORAD*(270.*cell[0]/dim[0]-45.))",
									"patching_rect" : [ 368.0, 208.0, 299.0, 18.0 ],
									"outlettype" : [ "" ],
									"id" : "obj-10",
									"fontname" : "Monaco",
									"fontsize" : 10.0,
									"numinlets" : 2,
									"numoutlets" : 1
								}

							}
, 							{
								"box" : 								{
									"maxclass" : "newobj",
									"text" : "jit.matrix 1 float32 541",
									"patching_rect" : [ 368.0, 240.0, 155.0, 20.0 ],
									"outlettype" : [ "jit_matrix", "" ],
									"id" : "obj-11",
									"fontname" : "Monaco",
									"fontsize" : 10.0,
									"numinlets" : 1,
									"numoutlets" : 2
								}

							}
, 							{
								"box" : 								{
									"maxclass" : "message",
									"text" : "exprfill sin(DEGTORAD*(270.*cell[0]/dim[0]-45.))",
									"patching_rect" : [ 40.0, 208.0, 299.0, 18.0 ],
									"outlettype" : [ "" ],
									"id" : "obj-5",
									"fontname" : "Monaco",
									"fontsize" : 10.0,
									"numinlets" : 2,
									"numoutlets" : 1
								}

							}
, 							{
								"box" : 								{
									"maxclass" : "newobj",
									"text" : "jit.matrix 1 float32 541",
									"patching_rect" : [ 40.0, 240.0, 155.0, 20.0 ],
									"outlettype" : [ "jit_matrix", "" ],
									"id" : "obj-4",
									"fontname" : "Monaco",
									"fontsize" : 10.0,
									"numinlets" : 1,
									"numoutlets" : 2
								}

							}
, 							{
								"box" : 								{
									"maxclass" : "inlet",
									"patching_rect" : [ 128.0, 8.0, 25.0, 25.0 ],
									"outlettype" : [ "jit_matrix" ],
									"id" : "obj-1",
									"numinlets" : 0,
									"numoutlets" : 1,
									"comment" : ""
								}

							}
, 							{
								"box" : 								{
									"maxclass" : "inlet",
									"patching_rect" : [ 32.0, 8.0, 25.0, 25.0 ],
									"outlettype" : [ "jit_matrix" ],
									"id" : "obj-2",
									"numinlets" : 0,
									"numoutlets" : 1,
									"comment" : ""
								}

							}
, 							{
								"box" : 								{
									"maxclass" : "outlet",
									"patching_rect" : [ 120.0, 352.0, 25.0, 25.0 ],
									"id" : "obj-3",
									"numinlets" : 1,
									"numoutlets" : 0,
									"comment" : ""
								}

							}
 ],
						"lines" : [ 							{
								"patchline" : 								{
									"source" : [ "obj-7", 0 ],
									"destination" : [ "obj-48", 0 ],
									"hidden" : 0,
									"midpoints" : [ 65.5, 114.0, 41.5, 114.0 ]
								}

							}
, 							{
								"patchline" : 								{
									"source" : [ "obj-47", 0 ],
									"destination" : [ "obj-48", 0 ],
									"hidden" : 0,
									"midpoints" : [  ]
								}

							}
, 							{
								"patchline" : 								{
									"source" : [ "obj-46", 0 ],
									"destination" : [ "obj-47", 0 ],
									"hidden" : 0,
									"midpoints" : [  ]
								}

							}
, 							{
								"patchline" : 								{
									"source" : [ "obj-16", 0 ],
									"destination" : [ "obj-18", 0 ],
									"hidden" : 0,
									"midpoints" : [  ]
								}

							}
, 							{
								"patchline" : 								{
									"source" : [ "obj-17", 0 ],
									"destination" : [ "obj-18", 1 ],
									"hidden" : 0,
									"midpoints" : [  ]
								}

							}
, 							{
								"patchline" : 								{
									"source" : [ "obj-11", 0 ],
									"destination" : [ "obj-17", 1 ],
									"hidden" : 0,
									"midpoints" : [  ]
								}

							}
, 							{
								"patchline" : 								{
									"source" : [ "obj-4", 0 ],
									"destination" : [ "obj-16", 1 ],
									"hidden" : 0,
									"midpoints" : [  ]
								}

							}
, 							{
								"patchline" : 								{
									"source" : [ "obj-5", 0 ],
									"destination" : [ "obj-4", 0 ],
									"hidden" : 0,
									"midpoints" : [  ]
								}

							}
, 							{
								"patchline" : 								{
									"source" : [ "obj-10", 0 ],
									"destination" : [ "obj-11", 0 ],
									"hidden" : 0,
									"midpoints" : [  ]
								}

							}
, 							{
								"patchline" : 								{
									"source" : [ "obj-13", 2 ],
									"destination" : [ "obj-14", 0 ],
									"hidden" : 0,
									"midpoints" : [  ]
								}

							}
, 							{
								"patchline" : 								{
									"source" : [ "obj-13", 1 ],
									"destination" : [ "obj-5", 0 ],
									"hidden" : 0,
									"midpoints" : [  ]
								}

							}
, 							{
								"patchline" : 								{
									"source" : [ "obj-13", 0 ],
									"destination" : [ "obj-4", 0 ],
									"hidden" : 0,
									"midpoints" : [ 41.5, 195.0, 26.0, 195.0, 26.0, 237.0, 49.5, 237.0 ]
								}

							}
, 							{
								"patchline" : 								{
									"source" : [ "obj-14", 0 ],
									"destination" : [ "obj-4", 0 ],
									"hidden" : 0,
									"midpoints" : [ 81.5, 233.5, 49.5, 233.5 ]
								}

							}
, 							{
								"patchline" : 								{
									"source" : [ "obj-14", 0 ],
									"destination" : [ "obj-11", 0 ],
									"hidden" : 0,
									"midpoints" : [ 81.5, 195.0, 353.0, 195.0, 353.0, 237.0, 377.5, 237.0 ]
								}

							}
, 							{
								"patchline" : 								{
									"source" : [ "obj-13", 0 ],
									"destination" : [ "obj-11", 0 ],
									"hidden" : 0,
									"midpoints" : [ 41.5, 195.0, 353.0, 195.0, 353.0, 237.0, 377.5, 237.0 ]
								}

							}
, 							{
								"patchline" : 								{
									"source" : [ "obj-13", 1 ],
									"destination" : [ "obj-10", 0 ],
									"hidden" : 0,
									"midpoints" : [ 58.5, 168.0, 377.5, 168.0 ]
								}

							}
, 							{
								"patchline" : 								{
									"source" : [ "obj-48", 0 ],
									"destination" : [ "obj-13", 0 ],
									"hidden" : 0,
									"midpoints" : [  ]
								}

							}
, 							{
								"patchline" : 								{
									"source" : [ "obj-1", 0 ],
									"destination" : [ "obj-16", 0 ],
									"hidden" : 0,
									"midpoints" : [ 137.5, 87.0, 17.5, 87.0 ]
								}

							}
, 							{
								"patchline" : 								{
									"source" : [ "obj-1", 0 ],
									"destination" : [ "obj-17", 0 ],
									"hidden" : 0,
									"midpoints" : [ 137.5, 87.0, 350.0, 87.0, 350.0, 234.0, 313.5, 234.0 ]
								}

							}
, 							{
								"patchline" : 								{
									"source" : [ "obj-2", 0 ],
									"destination" : [ "obj-46", 0 ],
									"hidden" : 0,
									"midpoints" : [  ]
								}

							}
, 							{
								"patchline" : 								{
									"source" : [ "obj-18", 0 ],
									"destination" : [ "obj-3", 0 ],
									"hidden" : 0,
									"midpoints" : [  ]
								}

							}
 ]
					}
,
					"saved_object_attributes" : 					{
						"default_fontface" : 0,
						"fontname" : "Monaco",
						"default_fontname" : "Monaco",
						"globalpatchername" : "",
						"default_fontsize" : 10.0,
						"fontface" : 0,
						"fontsize" : 10.0
					}

				}

			}
, 			{
				"box" : 				{
					"maxclass" : "newobj",
					"text" : "p esc-fullscreen",
					"patching_rect" : [ 8.0, 32.0, 90.0, 20.0 ],
					"outlettype" : [ "" ],
					"id" : "obj-72",
					"fontname" : "Arial",
					"fontsize" : 11.595187,
					"numinlets" : 0,
					"numoutlets" : 1,
					"patcher" : 					{
						"fileversion" : 1,
						"rect" : [ 86.0, 108.0, 235.0, 205.0 ],
						"bglocked" : 0,
						"defrect" : [ 86.0, 108.0, 235.0, 205.0 ],
						"openrect" : [ 0.0, 0.0, 0.0, 0.0 ],
						"openinpresentation" : 0,
						"default_fontsize" : 10.0,
						"default_fontface" : 0,
						"default_fontname" : "Arial",
						"gridonopen" : 0,
						"gridsize" : [ 15.0, 15.0 ],
						"gridsnaponopen" : 0,
						"toolbarvisible" : 1,
						"boxanimatetime" : 200,
						"imprint" : 0,
						"boxes" : [ 							{
								"box" : 								{
									"maxclass" : "comment",
									"text" : "Escape ASCII Code",
									"patching_rect" : [ 86.0, 67.0, 114.0, 20.0 ],
									"id" : "obj-7",
									"fontname" : "Arial",
									"fontsize" : 11.595187,
									"numinlets" : 1,
									"numoutlets" : 0
								}

							}
, 							{
								"box" : 								{
									"maxclass" : "outlet",
									"patching_rect" : [ 27.0, 157.25, 25.0, 25.0 ],
									"id" : "obj-2",
									"numinlets" : 1,
									"numoutlets" : 0,
									"comment" : ""
								}

							}
, 							{
								"box" : 								{
									"maxclass" : "message",
									"text" : "fullscreen $1",
									"patching_rect" : [ 27.0, 127.25, 76.0, 18.0 ],
									"outlettype" : [ "" ],
									"id" : "obj-3",
									"fontname" : "Arial",
									"fontsize" : 11.595187,
									"numinlets" : 2,
									"numoutlets" : 1
								}

							}
, 							{
								"box" : 								{
									"maxclass" : "newobj",
									"text" : "key",
									"patching_rect" : [ 27.0, 37.0, 46.0, 20.0 ],
									"outlettype" : [ "int", "int", "int", "int" ],
									"id" : "obj-4",
									"fontname" : "Arial",
									"fontsize" : 11.595187,
									"numinlets" : 0,
									"numoutlets" : 4
								}

							}
, 							{
								"box" : 								{
									"maxclass" : "newobj",
									"text" : "select 27",
									"patching_rect" : [ 27.0, 67.25, 57.0, 20.0 ],
									"outlettype" : [ "bang", "" ],
									"id" : "obj-5",
									"fontname" : "Arial",
									"fontsize" : 11.595187,
									"numinlets" : 2,
									"numoutlets" : 2
								}

							}
, 							{
								"box" : 								{
									"maxclass" : "toggle",
									"patching_rect" : [ 27.0, 97.25, 20.0, 20.0 ],
									"outlettype" : [ "int" ],
									"id" : "obj-6",
									"numinlets" : 1,
									"numoutlets" : 1
								}

							}
 ],
						"lines" : [ 							{
								"patchline" : 								{
									"source" : [ "obj-3", 0 ],
									"destination" : [ "obj-2", 0 ],
									"hidden" : 0,
									"midpoints" : [  ]
								}

							}
, 							{
								"patchline" : 								{
									"source" : [ "obj-6", 0 ],
									"destination" : [ "obj-3", 0 ],
									"hidden" : 0,
									"midpoints" : [  ]
								}

							}
, 							{
								"patchline" : 								{
									"source" : [ "obj-5", 0 ],
									"destination" : [ "obj-6", 0 ],
									"hidden" : 0,
									"midpoints" : [  ]
								}

							}
, 							{
								"patchline" : 								{
									"source" : [ "obj-4", 0 ],
									"destination" : [ "obj-5", 0 ],
									"hidden" : 0,
									"midpoints" : [  ]
								}

							}
 ]
					}
,
					"saved_object_attributes" : 					{
						"default_fontface" : 0,
						"fontname" : "Arial",
						"default_fontname" : "Arial",
						"globalpatchername" : "",
						"default_fontsize" : 10.0,
						"fontface" : 0,
						"fontsize" : 10.0
					}

				}

			}
, 			{
				"box" : 				{
					"maxclass" : "newobj",
					"text" : "jit.window",
					"patching_rect" : [ 104.0, 56.0, 71.0, 20.0 ],
					"outlettype" : [ "bang", "" ],
					"id" : "obj-56",
					"fontname" : "Monaco",
					"fontsize" : 10.0,
					"numinlets" : 1,
					"numoutlets" : 2
				}

			}
, 			{
				"box" : 				{
					"maxclass" : "newobj",
					"text" : "r sick.dist",
					"patching_rect" : [ 72.0, 104.0, 77.0, 20.0 ],
					"outlettype" : [ "" ],
					"id" : "obj-55",
					"fontname" : "Monaco",
					"fontsize" : 10.0,
					"numinlets" : 0,
					"numoutlets" : 1
				}

			}
, 			{
				"box" : 				{
					"maxclass" : "newobj",
					"text" : "jit.op @op / @val 65535",
					"patching_rect" : [ 56.0, 232.0, 149.0, 20.0 ],
					"outlettype" : [ "jit_matrix", "" ],
					"id" : "obj-54",
					"fontname" : "Monaco",
					"fontsize" : 10.0,
					"numinlets" : 2,
					"numoutlets" : 2
				}

			}
, 			{
				"box" : 				{
					"maxclass" : "newobj",
					"text" : "jit.matrix dist",
					"patching_rect" : [ 8.0, 192.0, 101.0, 20.0 ],
					"outlettype" : [ "jit_matrix", "" ],
					"id" : "obj-45",
					"fontname" : "Monaco",
					"fontsize" : 10.0,
					"numinlets" : 1,
					"numoutlets" : 2
				}

			}
, 			{
				"box" : 				{
					"maxclass" : "newobj",
					"text" : "jit.gl.mesh radar @color 0. 1. 0. 0.5",
					"patching_rect" : [ 8.0, 376.0, 233.0, 20.0 ],
					"outlettype" : [ "jit_matrix", "" ],
					"id" : "obj-37",
					"fontname" : "Monaco",
					"fontsize" : 10.0,
					"numinlets" : 9,
					"numoutlets" : 2
				}

			}
, 			{
				"box" : 				{
					"maxclass" : "newobj",
					"text" : "loadbang",
					"patching_rect" : [ 104.0, 8.0, 59.0, 20.0 ],
					"outlettype" : [ "bang" ],
					"id" : "obj-36",
					"fontname" : "Monaco",
					"fontsize" : 10.0,
					"numinlets" : 1,
					"numoutlets" : 1
				}

			}
, 			{
				"box" : 				{
					"maxclass" : "newobj",
					"text" : "jit.gl.handle radar @inherit_transform 1",
					"patching_rect" : [ 160.0, 104.0, 211.0, 20.0 ],
					"outlettype" : [ "", "" ],
					"id" : "obj-35",
					"fontname" : "Arial",
					"fontsize" : 11.595187,
					"numinlets" : 1,
					"numoutlets" : 2
				}

			}
, 			{
				"box" : 				{
					"maxclass" : "message",
					"text" : "name radar, fsmenubar 0",
					"patching_rect" : [ 104.0, 32.0, 149.0, 18.0 ],
					"outlettype" : [ "" ],
					"id" : "obj-25",
					"fontname" : "Monaco",
					"fontsize" : 10.0,
					"numinlets" : 2,
					"numoutlets" : 1
				}

			}
, 			{
				"box" : 				{
					"maxclass" : "newobj",
					"text" : "t b b erase",
					"patching_rect" : [ 72.0, 128.0, 77.0, 20.0 ],
					"outlettype" : [ "bang", "bang", "erase" ],
					"id" : "obj-24",
					"fontname" : "Monaco",
					"fontsize" : 10.0,
					"numinlets" : 1,
					"numoutlets" : 3
				}

			}
, 			{
				"box" : 				{
					"maxclass" : "newobj",
					"text" : "jit.gl.render radar @depth_enable 1",
					"patching_rect" : [ 72.0, 160.0, 221.0, 20.0 ],
					"outlettype" : [ "bang", "" ],
					"id" : "obj-22",
					"fontname" : "Monaco",
					"fontsize" : 10.0,
					"numinlets" : 1,
					"numoutlets" : 2
				}

			}
 ],
		"lines" : [ 			{
				"patchline" : 				{
					"source" : [ "obj-11", 0 ],
					"destination" : [ "obj-10", 0 ],
					"hidden" : 0,
					"midpoints" : [  ]
				}

			}
, 			{
				"patchline" : 				{
					"source" : [ "obj-6", 0 ],
					"destination" : [ "obj-37", 0 ],
					"hidden" : 0,
					"midpoints" : [  ]
				}

			}
, 			{
				"patchline" : 				{
					"source" : [ "obj-9", 0 ],
					"destination" : [ "obj-37", 0 ],
					"hidden" : 0,
					"midpoints" : [  ]
				}

			}
, 			{
				"patchline" : 				{
					"source" : [ "obj-10", 1 ],
					"destination" : [ "obj-9", 0 ],
					"hidden" : 0,
					"midpoints" : [  ]
				}

			}
, 			{
				"patchline" : 				{
					"source" : [ "obj-45", 0 ],
					"destination" : [ "obj-54", 0 ],
					"hidden" : 0,
					"midpoints" : [  ]
				}

			}
, 			{
				"patchline" : 				{
					"source" : [ "obj-6", 0 ],
					"destination" : [ "obj-7", 0 ],
					"hidden" : 0,
					"midpoints" : [  ]
				}

			}
, 			{
				"patchline" : 				{
					"source" : [ "obj-24", 1 ],
					"destination" : [ "obj-45", 0 ],
					"hidden" : 0,
					"midpoints" : [ 110.5, 152.0, 17.5, 152.0 ]
				}

			}
, 			{
				"patchline" : 				{
					"source" : [ "obj-45", 0 ],
					"destination" : [ "obj-6", 0 ],
					"hidden" : 0,
					"midpoints" : [  ]
				}

			}
, 			{
				"patchline" : 				{
					"source" : [ "obj-54", 0 ],
					"destination" : [ "obj-6", 1 ],
					"hidden" : 0,
					"midpoints" : [  ]
				}

			}
, 			{
				"patchline" : 				{
					"source" : [ "obj-24", 0 ],
					"destination" : [ "obj-22", 0 ],
					"hidden" : 0,
					"midpoints" : [  ]
				}

			}
, 			{
				"patchline" : 				{
					"source" : [ "obj-24", 2 ],
					"destination" : [ "obj-22", 0 ],
					"hidden" : 0,
					"midpoints" : [ 139.5, 156.0, 81.5, 156.0 ]
				}

			}
, 			{
				"patchline" : 				{
					"source" : [ "obj-55", 0 ],
					"destination" : [ "obj-24", 0 ],
					"hidden" : 0,
					"midpoints" : [  ]
				}

			}
, 			{
				"patchline" : 				{
					"source" : [ "obj-72", 0 ],
					"destination" : [ "obj-56", 0 ],
					"hidden" : 0,
					"midpoints" : [ 17.5, 54.0, 113.5, 54.0 ]
				}

			}
, 			{
				"patchline" : 				{
					"source" : [ "obj-36", 0 ],
					"destination" : [ "obj-25", 0 ],
					"hidden" : 0,
					"midpoints" : [  ]
				}

			}
, 			{
				"patchline" : 				{
					"source" : [ "obj-35", 0 ],
					"destination" : [ "obj-22", 0 ],
					"hidden" : 0,
					"midpoints" : [ 169.5, 156.0, 81.5, 156.0 ]
				}

			}
, 			{
				"patchline" : 				{
					"source" : [ "obj-25", 0 ],
					"destination" : [ "obj-56", 0 ],
					"hidden" : 0,
					"midpoints" : [  ]
				}

			}
 ]
	}

}
