{
	"patcher" : 	{
		"fileversion" : 1,
		"rect" : [ 556.0, 44.0, 637.0, 580.0 ],
		"bglocked" : 0,
		"defrect" : [ 556.0, 44.0, 637.0, 580.0 ],
		"openrect" : [ 0.0, 0.0, 0.0, 0.0 ],
		"openinpresentation" : 0,
		"default_fontsize" : 10.0,
		"default_fontface" : 0,
		"default_fontname" : "Monaco",
		"gridonopen" : 0,
		"gridsize" : [ 8.0, 8.0 ],
		"gridsnaponopen" : 0,
		"toolbarvisible" : 1,
		"boxanimatetime" : 200,
		"imprint" : 0,
		"enablehscroll" : 1,
		"enablevscroll" : 1,
		"boxes" : [ 			{
				"box" : 				{
					"maxclass" : "newobj",
					"text" : "loadmess 1",
					"fontsize" : 10.0,
					"numoutlets" : 1,
					"outlettype" : [ "" ],
					"fontname" : "Monaco",
					"patching_rect" : [ 16.0, 312.0, 71.0, 20.0 ],
					"id" : "obj-22",
					"numinlets" : 1
				}

			}
, 			{
				"box" : 				{
					"maxclass" : "newobj",
					"text" : "t 0 2",
					"fontsize" : 10.0,
					"numoutlets" : 2,
					"outlettype" : [ "int", "int" ],
					"hidden" : 1,
					"fontname" : "Monaco",
					"patching_rect" : [ 304.0, 56.0, 41.0, 20.0 ],
					"id" : "obj-21",
					"numinlets" : 1
				}

			}
, 			{
				"box" : 				{
					"maxclass" : "newobj",
					"text" : "route connected",
					"fontsize" : 10.0,
					"numoutlets" : 2,
					"outlettype" : [ "", "" ],
					"fontname" : "Monaco",
					"patching_rect" : [ 304.0, 32.0, 101.0, 20.0 ],
					"id" : "obj-20",
					"numinlets" : 1
				}

			}
, 			{
				"box" : 				{
					"maxclass" : "newobj",
					"text" : "r from-scanner",
					"fontsize" : 10.0,
					"numoutlets" : 1,
					"outlettype" : [ "" ],
					"fontname" : "Monaco",
					"patching_rect" : [ 304.0, 8.0, 95.0, 20.0 ],
					"id" : "obj-19",
					"numinlets" : 0
				}

			}
, 			{
				"box" : 				{
					"maxclass" : "toggle",
					"numoutlets" : 1,
					"outlettype" : [ "int" ],
					"patching_rect" : [ 16.0, 336.0, 16.0, 16.0 ],
					"id" : "obj-16",
					"numinlets" : 1
				}

			}
, 			{
				"box" : 				{
					"maxclass" : "newobj",
					"text" : "gate",
					"fontsize" : 10.0,
					"numoutlets" : 1,
					"outlettype" : [ "" ],
					"fontname" : "Monaco",
					"patching_rect" : [ 16.0, 360.0, 35.0, 20.0 ],
					"id" : "obj-14",
					"numinlets" : 2
				}

			}
, 			{
				"box" : 				{
					"maxclass" : "newobj",
					"text" : "s from-scanner",
					"fontsize" : 10.0,
					"numoutlets" : 0,
					"fontname" : "Monaco",
					"patching_rect" : [ 416.0, 304.0, 95.0, 20.0 ],
					"id" : "obj-8",
					"numinlets" : 1
				}

			}
, 			{
				"box" : 				{
					"maxclass" : "newobj",
					"text" : "r from-scanner",
					"fontsize" : 10.0,
					"numoutlets" : 1,
					"outlettype" : [ "" ],
					"fontname" : "Monaco",
					"patching_rect" : [ 32.0, 336.0, 95.0, 20.0 ],
					"id" : "obj-7",
					"numinlets" : 0
				}

			}
, 			{
				"box" : 				{
					"maxclass" : "comment",
					"text" : "scan mode",
					"fontsize" : 10.0,
					"numoutlets" : 0,
					"fontname" : "Monaco",
					"patching_rect" : [ 32.0, 208.0, 66.0, 20.0 ],
					"id" : "obj-42",
					"numinlets" : 1
				}

			}
, 			{
				"box" : 				{
					"maxclass" : "comment",
					"text" : "mean filter",
					"fontsize" : 10.0,
					"numoutlets" : 0,
					"fontname" : "Monaco",
					"patching_rect" : [ 112.0, 136.0, 78.0, 20.0 ],
					"id" : "obj-41",
					"numinlets" : 1
				}

			}
, 			{
				"box" : 				{
					"maxclass" : "newobj",
					"text" : "s to-scanner",
					"fontsize" : 10.0,
					"numoutlets" : 0,
					"fontname" : "Monaco",
					"patching_rect" : [ 208.0, 280.0, 83.0, 20.0 ],
					"id" : "obj-37",
					"numinlets" : 1
				}

			}
, 			{
				"box" : 				{
					"maxclass" : "newobj",
					"text" : "s to-scanner",
					"fontsize" : 10.0,
					"numoutlets" : 0,
					"fontname" : "Monaco",
					"patching_rect" : [ 16.0, 88.0, 83.0, 20.0 ],
					"id" : "obj-35",
					"numinlets" : 1
				}

			}
, 			{
				"box" : 				{
					"maxclass" : "newobj",
					"text" : "s to-scanner",
					"fontsize" : 10.0,
					"numoutlets" : 0,
					"fontname" : "Monaco",
					"patching_rect" : [ 16.0, 272.0, 83.0, 20.0 ],
					"id" : "obj-33",
					"numinlets" : 1
				}

			}
, 			{
				"box" : 				{
					"maxclass" : "newobj",
					"text" : "s to-scanner",
					"fontsize" : 10.0,
					"numoutlets" : 0,
					"fontname" : "Monaco",
					"patching_rect" : [ 208.0, 216.0, 83.0, 20.0 ],
					"id" : "obj-31",
					"numinlets" : 1
				}

			}
, 			{
				"box" : 				{
					"maxclass" : "newobj",
					"text" : "r to-scanner",
					"fontsize" : 10.0,
					"numoutlets" : 1,
					"outlettype" : [ "" ],
					"fontname" : "Monaco",
					"patching_rect" : [ 312.0, 256.0, 83.0, 20.0 ],
					"id" : "obj-30",
					"numinlets" : 0
				}

			}
, 			{
				"box" : 				{
					"maxclass" : "comment",
					"text" : "continuous scan mode",
					"fontsize" : 10.0,
					"numoutlets" : 0,
					"fontname" : "Monaco",
					"patching_rect" : [ 248.0, 160.0, 130.0, 20.0 ],
					"id" : "obj-29",
					"numinlets" : 1
				}

			}
, 			{
				"box" : 				{
					"maxclass" : "umenu",
					"framecolor" : [ 0.545098, 0.85098, 0.592157, 1.0 ],
					"fontsize" : 10.0,
					"numoutlets" : 3,
					"outlettype" : [ "int", "", "" ],
					"items" : [ 1082, "x", "0.25°", "@25Hz", ",", 541, "x", "0.5°", "@25Hz", ",", 541, "x", "0.5°", "@50Hz" ],
					"truncate" : 0,
					"fontname" : "Monaco",
					"patching_rect" : [ 32.0, 224.0, 159.0, 20.0 ],
					"id" : "obj-28",
					"align" : 1,
					"numinlets" : 1,
					"types" : [  ]
				}

			}
, 			{
				"box" : 				{
					"maxclass" : "newobj",
					"text" : "+ 1",
					"fontsize" : 10.0,
					"numoutlets" : 1,
					"outlettype" : [ "int" ],
					"fontname" : "Monaco",
					"patching_rect" : [ 16.0, 160.0, 32.5, 20.0 ],
					"id" : "obj-27",
					"numinlets" : 2
				}

			}
, 			{
				"box" : 				{
					"maxclass" : "umenu",
					"framecolor" : [ 0.545098, 0.85098, 0.592157, 1.0 ],
					"fontsize" : 10.0,
					"numoutlets" : 3,
					"outlettype" : [ "int", "", "" ],
					"items" : [ "off", ",", "x2", ",", "x3" ],
					"fontname" : "Monaco",
					"patching_rect" : [ 112.0, 152.0, 52.0, 20.0 ],
					"id" : "obj-25",
					"numinlets" : 1,
					"types" : [  ]
				}

			}
, 			{
				"box" : 				{
					"maxclass" : "newobj",
					"text" : "p lms-dist",
					"fontsize" : 10.0,
					"numoutlets" : 0,
					"fontname" : "Monaco",
					"patching_rect" : [ 312.0, 328.0, 71.0, 20.0 ],
					"id" : "obj-24",
					"numinlets" : 1,
					"patcher" : 					{
						"fileversion" : 1,
						"rect" : [ 0.0, 0.0, 640.0, 480.0 ],
						"bglocked" : 0,
						"defrect" : [ 0.0, 0.0, 640.0, 480.0 ],
						"openrect" : [ 0.0, 0.0, 0.0, 0.0 ],
						"openinpresentation" : 0,
						"default_fontsize" : 10.0,
						"default_fontface" : 0,
						"default_fontname" : "Monaco",
						"gridonopen" : 0,
						"gridsize" : [ 8.0, 8.0 ],
						"gridsnaponopen" : 0,
						"toolbarvisible" : 1,
						"boxanimatetime" : 200,
						"imprint" : 0,
						"enablehscroll" : 1,
						"enablevscroll" : 1,
						"boxes" : [ 							{
								"box" : 								{
									"maxclass" : "newobj",
									"text" : "prepend dim",
									"fontsize" : 10.0,
									"numoutlets" : 1,
									"outlettype" : [ "" ],
									"fontname" : "Monaco",
									"patching_rect" : [ 170.0, 148.0, 77.0, 20.0 ],
									"id" : "obj-27",
									"numinlets" : 1
								}

							}
, 							{
								"box" : 								{
									"maxclass" : "newobj",
									"text" : "change 541",
									"fontsize" : 10.0,
									"numoutlets" : 3,
									"outlettype" : [ "", "int", "int" ],
									"fontname" : "Monaco",
									"patching_rect" : [ 170.0, 124.0, 71.0, 20.0 ],
									"id" : "obj-25",
									"numinlets" : 1
								}

							}
, 							{
								"box" : 								{
									"maxclass" : "newobj",
									"text" : "zl 1082 len",
									"fontsize" : 10.0,
									"numoutlets" : 2,
									"outlettype" : [ "", "" ],
									"fontname" : "Monaco",
									"patching_rect" : [ 170.0, 100.0, 77.0, 20.0 ],
									"id" : "obj-14",
									"numinlets" : 2
								}

							}
, 							{
								"box" : 								{
									"maxclass" : "newobj",
									"text" : "s has-lms-dist",
									"fontsize" : 10.0,
									"numoutlets" : 0,
									"fontname" : "Monaco",
									"patching_rect" : [ 50.0, 124.0, 95.0, 20.0 ],
									"id" : "obj-23",
									"numinlets" : 1
								}

							}
, 							{
								"box" : 								{
									"maxclass" : "newobj",
									"text" : "jit.matrix lms-dist 1 float32 541",
									"fontsize" : 10.0,
									"numoutlets" : 2,
									"outlettype" : [ "jit_matrix", "" ],
									"fontname" : "Monaco",
									"patching_rect" : [ 170.0, 172.0, 209.0, 20.0 ],
									"id" : "obj-22",
									"numinlets" : 1
								}

							}
, 							{
								"box" : 								{
									"maxclass" : "newobj",
									"text" : "jit.fill lms-dist",
									"fontsize" : 10.0,
									"numoutlets" : 2,
									"outlettype" : [ "", "" ],
									"fontname" : "Monaco",
									"patching_rect" : [ 50.0, 100.0, 113.0, 20.0 ],
									"id" : "obj-21",
									"numinlets" : 1
								}

							}
, 							{
								"box" : 								{
									"maxclass" : "inlet",
									"numoutlets" : 1,
									"outlettype" : [ "" ],
									"patching_rect" : [ 105.0, 40.0, 25.0, 25.0 ],
									"id" : "obj-16",
									"numinlets" : 0,
									"comment" : ""
								}

							}
 ],
						"lines" : [ 							{
								"patchline" : 								{
									"source" : [ "obj-27", 0 ],
									"destination" : [ "obj-22", 0 ],
									"hidden" : 0,
									"midpoints" : [  ]
								}

							}
, 							{
								"patchline" : 								{
									"source" : [ "obj-25", 0 ],
									"destination" : [ "obj-27", 0 ],
									"hidden" : 0,
									"midpoints" : [  ]
								}

							}
, 							{
								"patchline" : 								{
									"source" : [ "obj-14", 0 ],
									"destination" : [ "obj-25", 0 ],
									"hidden" : 0,
									"midpoints" : [  ]
								}

							}
, 							{
								"patchline" : 								{
									"source" : [ "obj-21", 0 ],
									"destination" : [ "obj-23", 0 ],
									"hidden" : 0,
									"midpoints" : [  ]
								}

							}
, 							{
								"patchline" : 								{
									"source" : [ "obj-16", 0 ],
									"destination" : [ "obj-21", 0 ],
									"hidden" : 0,
									"midpoints" : [  ]
								}

							}
, 							{
								"patchline" : 								{
									"source" : [ "obj-16", 0 ],
									"destination" : [ "obj-14", 0 ],
									"hidden" : 0,
									"midpoints" : [  ]
								}

							}
 ]
					}
,
					"saved_object_attributes" : 					{
						"globalpatchername" : "",
						"fontface" : 0,
						"fontsize" : 10.0,
						"default_fontface" : 0,
						"default_fontname" : "Monaco",
						"fontname" : "Monaco",
						"default_fontsize" : 10.0
					}

				}

			}
, 			{
				"box" : 				{
					"maxclass" : "comment",
					"text" : "single scan",
					"fontsize" : 10.0,
					"numoutlets" : 0,
					"fontname" : "Monaco",
					"patching_rect" : [ 248.0, 136.0, 77.0, 20.0 ],
					"id" : "obj-15",
					"numinlets" : 1
				}

			}
, 			{
				"box" : 				{
					"maxclass" : "newobj",
					"text" : "route channel",
					"fontsize" : 10.0,
					"numoutlets" : 2,
					"outlettype" : [ "", "" ],
					"fontname" : "Monaco",
					"patching_rect" : [ 312.0, 304.0, 89.0, 20.0 ],
					"id" : "obj-12",
					"numinlets" : 1
				}

			}
, 			{
				"box" : 				{
					"maxclass" : "message",
					"text" : "set-mean-filter $1",
					"fontsize" : 10.0,
					"numoutlets" : 1,
					"outlettype" : [ "" ],
					"fontname" : "Monaco",
					"patching_rect" : [ 16.0, 184.0, 119.0, 18.0 ],
					"id" : "obj-17",
					"numinlets" : 2
				}

			}
, 			{
				"box" : 				{
					"maxclass" : "message",
					"text" : "scan $1",
					"fontsize" : 10.0,
					"numoutlets" : 1,
					"outlettype" : [ "" ],
					"fontname" : "Monaco",
					"patching_rect" : [ 224.0, 184.0, 53.0, 18.0 ],
					"id" : "obj-6",
					"numinlets" : 2
				}

			}
, 			{
				"box" : 				{
					"maxclass" : "toggle",
					"numoutlets" : 1,
					"outlettype" : [ "int" ],
					"patching_rect" : [ 224.0, 160.0, 20.0, 20.0 ],
					"id" : "obj-2",
					"bordercolor" : [ 0.545098, 0.85098, 0.592157, 1.0 ],
					"numinlets" : 1
				}

			}
, 			{
				"box" : 				{
					"maxclass" : "newobj",
					"text" : "print LMS100",
					"fontsize" : 10.0,
					"numoutlets" : 0,
					"fontname" : "Monaco",
					"patching_rect" : [ 16.0, 384.0, 83.0, 20.0 ],
					"id" : "obj-13",
					"numinlets" : 1
				}

			}
, 			{
				"box" : 				{
					"maxclass" : "button",
					"bgcolor" : [ 0.545098, 0.85098, 0.592157, 0.501961 ],
					"numoutlets" : 1,
					"outlettype" : [ "bang" ],
					"patching_rect" : [ 224.0, 136.0, 20.0, 20.0 ],
					"id" : "obj-11",
					"numinlets" : 1,
					"outlinecolor" : [ 0.545098, 0.85098, 0.592157, 1.0 ]
				}

			}
, 			{
				"box" : 				{
					"maxclass" : "message",
					"text" : "set-scan-cfg $1",
					"fontsize" : 10.0,
					"numoutlets" : 1,
					"outlettype" : [ "" ],
					"fontname" : "Monaco",
					"patching_rect" : [ 32.0, 248.0, 101.0, 18.0 ],
					"id" : "obj-4",
					"numinlets" : 2
				}

			}
, 			{
				"box" : 				{
					"maxclass" : "message",
					"text" : "display $1",
					"fontsize" : 10.0,
					"numoutlets" : 1,
					"outlettype" : [ "" ],
					"fontname" : "Monaco",
					"patching_rect" : [ 208.0, 256.0, 71.0, 18.0 ],
					"id" : "obj-10",
					"numinlets" : 2
				}

			}
, 			{
				"box" : 				{
					"maxclass" : "comment",
					"text" : "defaults to 192.168.0.1 2112, [host [port]] may be supplied to override the default.",
					"linecount" : 3,
					"fontsize" : 10.0,
					"numoutlets" : 0,
					"fontname" : "Monaco",
					"patching_rect" : [ 72.0, 16.0, 210.0, 47.0 ],
					"id" : "obj-9",
					"numinlets" : 1
				}

			}
, 			{
				"box" : 				{
					"maxclass" : "message",
					"text" : "disconnect",
					"fontsize" : 10.0,
					"numoutlets" : 1,
					"outlettype" : [ "" ],
					"fontname" : "Monaco",
					"patching_rect" : [ 24.0, 64.0, 71.0, 18.0 ],
					"id" : "obj-5",
					"numinlets" : 2
				}

			}
, 			{
				"box" : 				{
					"maxclass" : "message",
					"text" : "connect",
					"fontsize" : 10.0,
					"numoutlets" : 1,
					"outlettype" : [ "" ],
					"fontname" : "Monaco",
					"patching_rect" : [ 16.0, 16.0, 53.0, 18.0 ],
					"id" : "obj-3",
					"numinlets" : 2
				}

			}
, 			{
				"box" : 				{
					"maxclass" : "newobj",
					"text" : "v2_max.sick.lms100",
					"fontsize" : 10.0,
					"numoutlets" : 5,
					"outlettype" : [ "", "", "", "", "" ],
					"fontname" : "Monaco",
					"patching_rect" : [ 312.0, 280.0, 119.0, 20.0 ],
					"id" : "obj-1",
					"numinlets" : 1,
					"color" : [ 0.545098, 0.85098, 0.592157, 1.0 ]
				}

			}
, 			{
				"box" : 				{
					"maxclass" : "panel",
					"numoutlets" : 0,
					"patching_rect" : [ 200.0, 128.0, 182.0, 117.0 ],
					"id" : "obj-32",
					"numinlets" : 1
				}

			}
, 			{
				"box" : 				{
					"maxclass" : "panel",
					"numoutlets" : 0,
					"patching_rect" : [ 8.0, 128.0, 189.0, 173.0 ],
					"id" : "obj-34",
					"numinlets" : 1
				}

			}
, 			{
				"box" : 				{
					"maxclass" : "panel",
					"numoutlets" : 0,
					"patching_rect" : [ 8.0, 8.0, 292.0, 117.0 ],
					"id" : "obj-36",
					"numinlets" : 1
				}

			}
, 			{
				"box" : 				{
					"maxclass" : "panel",
					"numoutlets" : 0,
					"patching_rect" : [ 200.0, 248.0, 100.0, 63.0 ],
					"id" : "obj-38",
					"numinlets" : 1
				}

			}
, 			{
				"box" : 				{
					"maxclass" : "panel",
					"numoutlets" : 0,
					"patching_rect" : [ 304.0, 248.0, 210.0, 111.0 ],
					"id" : "obj-39",
					"numinlets" : 1
				}

			}
, 			{
				"box" : 				{
					"maxclass" : "panel",
					"numoutlets" : 0,
					"patching_rect" : [ 8.0, 304.0, 128.0, 105.0 ],
					"id" : "obj-18",
					"numinlets" : 1
				}

			}
 ],
		"lines" : [ 			{
				"patchline" : 				{
					"source" : [ "obj-21", 1 ],
					"destination" : [ "obj-28", 0 ],
					"hidden" : 1,
					"midpoints" : [ 335.5, 117.0, 41.5, 117.0 ]
				}

			}
, 			{
				"patchline" : 				{
					"source" : [ "obj-20", 0 ],
					"destination" : [ "obj-21", 0 ],
					"hidden" : 1,
					"midpoints" : [  ]
				}

			}
, 			{
				"patchline" : 				{
					"source" : [ "obj-21", 0 ],
					"destination" : [ "obj-25", 0 ],
					"hidden" : 1,
					"midpoints" : [ 313.5, 82.0, 121.5, 82.0 ]
				}

			}
, 			{
				"patchline" : 				{
					"source" : [ "obj-19", 0 ],
					"destination" : [ "obj-20", 0 ],
					"hidden" : 0,
					"midpoints" : [  ]
				}

			}
, 			{
				"patchline" : 				{
					"source" : [ "obj-10", 0 ],
					"destination" : [ "obj-37", 0 ],
					"hidden" : 0,
					"midpoints" : [  ]
				}

			}
, 			{
				"patchline" : 				{
					"source" : [ "obj-3", 0 ],
					"destination" : [ "obj-35", 0 ],
					"hidden" : 0,
					"midpoints" : [  ]
				}

			}
, 			{
				"patchline" : 				{
					"source" : [ "obj-5", 0 ],
					"destination" : [ "obj-35", 0 ],
					"hidden" : 0,
					"midpoints" : [  ]
				}

			}
, 			{
				"patchline" : 				{
					"source" : [ "obj-17", 0 ],
					"destination" : [ "obj-33", 0 ],
					"hidden" : 0,
					"midpoints" : [ 25.5, 204.5, 25.5, 204.5 ]
				}

			}
, 			{
				"patchline" : 				{
					"source" : [ "obj-4", 0 ],
					"destination" : [ "obj-33", 0 ],
					"hidden" : 0,
					"midpoints" : [  ]
				}

			}
, 			{
				"patchline" : 				{
					"source" : [ "obj-11", 0 ],
					"destination" : [ "obj-31", 0 ],
					"hidden" : 0,
					"midpoints" : [ 233.5, 158.0, 217.5, 158.0 ]
				}

			}
, 			{
				"patchline" : 				{
					"source" : [ "obj-6", 0 ],
					"destination" : [ "obj-31", 0 ],
					"hidden" : 0,
					"midpoints" : [  ]
				}

			}
, 			{
				"patchline" : 				{
					"source" : [ "obj-30", 0 ],
					"destination" : [ "obj-1", 0 ],
					"hidden" : 0,
					"midpoints" : [  ]
				}

			}
, 			{
				"patchline" : 				{
					"source" : [ "obj-28", 0 ],
					"destination" : [ "obj-4", 0 ],
					"hidden" : 0,
					"midpoints" : [  ]
				}

			}
, 			{
				"patchline" : 				{
					"source" : [ "obj-27", 0 ],
					"destination" : [ "obj-17", 0 ],
					"hidden" : 0,
					"midpoints" : [  ]
				}

			}
, 			{
				"patchline" : 				{
					"source" : [ "obj-25", 0 ],
					"destination" : [ "obj-27", 0 ],
					"hidden" : 0,
					"midpoints" : [ 121.5, 177.0, 89.5, 177.0, 89.5, 155.0, 25.5, 155.0 ]
				}

			}
, 			{
				"patchline" : 				{
					"source" : [ "obj-12", 0 ],
					"destination" : [ "obj-24", 0 ],
					"hidden" : 0,
					"midpoints" : [  ]
				}

			}
, 			{
				"patchline" : 				{
					"source" : [ "obj-1", 0 ],
					"destination" : [ "obj-12", 0 ],
					"hidden" : 0,
					"midpoints" : [  ]
				}

			}
, 			{
				"patchline" : 				{
					"source" : [ "obj-2", 0 ],
					"destination" : [ "obj-6", 0 ],
					"hidden" : 0,
					"midpoints" : [  ]
				}

			}
, 			{
				"patchline" : 				{
					"source" : [ "obj-1", 4 ],
					"destination" : [ "obj-8", 0 ],
					"hidden" : 0,
					"midpoints" : [  ]
				}

			}
, 			{
				"patchline" : 				{
					"source" : [ "obj-7", 0 ],
					"destination" : [ "obj-14", 1 ],
					"hidden" : 0,
					"midpoints" : [  ]
				}

			}
, 			{
				"patchline" : 				{
					"source" : [ "obj-14", 0 ],
					"destination" : [ "obj-13", 0 ],
					"hidden" : 0,
					"midpoints" : [  ]
				}

			}
, 			{
				"patchline" : 				{
					"source" : [ "obj-16", 0 ],
					"destination" : [ "obj-14", 0 ],
					"hidden" : 0,
					"midpoints" : [  ]
				}

			}
, 			{
				"patchline" : 				{
					"source" : [ "obj-22", 0 ],
					"destination" : [ "obj-16", 0 ],
					"hidden" : 0,
					"midpoints" : [  ]
				}

			}
 ]
	}

}
